<svg height="734" width="720" xmlns="http://www.w3.org/2000/svg">
<rect height="734" fill="#555" width="720"></rect>
<text fill="#7f7" font-family="Courier New" font-size="12" xml:space="preserve">
<tspan x="10" y="26">8 megabytes installed</tspan>
<tspan x="10" y="42"></tspan>
<tspan x="10" y="58">node_modules</tspan>
<tspan x="10" y="74">└─┬ webcomponents@0.1.4 </tspan>
<tspan x="10" y="90">  ├─┬ cheerio@0.17.0 </tspan>
<tspan x="10" y="106">  │ ├─┬ CSSselect@0.4.1 </tspan>
<tspan x="10" y="122">  │ │ ├── CSSwhat@0.4.7 </tspan>
<tspan x="10" y="138">  │ │ └── domutils@1.4.3 </tspan>
<tspan x="10" y="154">  │ ├─┬ dom-serializer@0.0.1 </tspan>
<tspan x="10" y="170">  │ │ └── domelementtype@1.1.3 </tspan>
<tspan x="10" y="186">  │ ├── entities@1.1.1 </tspan>
<tspan x="10" y="202">  │ └─┬ htmlparser2@3.7.3 </tspan>
<tspan x="10" y="218">  │   ├── domelementtype@1.3.0 </tspan>
<tspan x="10" y="234">  │   ├── domhandler@2.2.1 </tspan>
<tspan x="10" y="250">  │   ├── domutils@1.5.1 </tspan>
<tspan x="10" y="266">  │   ├── entities@1.0.0 </tspan>
<tspan x="10" y="282">  │   └─┬ readable-stream@1.1.14 </tspan>
<tspan x="10" y="298">  │     ├── core-util-is@1.0.2 </tspan>
<tspan x="10" y="314">  │     ├── isarray@0.0.1 </tspan>
<tspan x="10" y="330">  │     └── string_decoder@0.10.31 </tspan>
<tspan x="10" y="346">  ├─┬ css@2.1.0 </tspan>
<tspan x="10" y="362">  │ ├── inherits@2.0.3 </tspan>
<tspan x="10" y="378">  │ ├─┬ source-map@0.1.43 </tspan>
<tspan x="10" y="394">  │ │ └── amdefine@1.0.1 </tspan>
<tspan x="10" y="410">  │ ├─┬ source-map-resolve@0.3.1 </tspan>
<tspan x="10" y="426">  │ │ ├── atob@1.1.3 </tspan>
<tspan x="10" y="442">  │ │ ├── resolve-url@0.2.1 </tspan>
<tspan x="10" y="458">  │ │ └── source-map-url@0.3.0 </tspan>
<tspan x="10" y="474">  │ └── urix@0.1.0 </tspan>
<tspan x="10" y="490">  ├── es6-promise@1.0.0 </tspan>
<tspan x="10" y="506">  ├─┬ glob@4.0.5 </tspan>
<tspan x="10" y="522">  │ ├─┬ graceful-fs@3.0.11 </tspan>
<tspan x="10" y="538">  │ │ └── natives@1.1.0 </tspan>
<tspan x="10" y="554">  │ ├─┬ minimatch@1.0.0 </tspan>
<tspan x="10" y="570">  │ │ ├── lru-cache@2.7.3 </tspan>
<tspan x="10" y="586">  │ │ └── sigmund@1.0.1 </tspan>
<tspan x="10" y="602">  │ └─┬ once@1.4.0 </tspan>
<tspan x="10" y="618">  │   └── wrappy@1.0.2 </tspan>
<tspan x="10" y="634">  ├─┬ handlebars@2.0.0 </tspan>
<tspan x="10" y="650">  │ ├─┬ optimist@0.3.7 </tspan>
<tspan x="10" y="666">  │ │ └── wordwrap@0.0.3 </tspan>
<tspan x="10" y="682">  │ └─┬ uglify-js@2.3.6 </tspan>
<tspan x="10" y="698">  │   └── async@0.2.10 </tspan>
<tspan x="10" y="714">  └── lodash@2.4.1</tspan>
</text>
</svg>
